<svg xmlns="http://www.w3.org/2000/svg" xmlns:xlink="http://www.w3.org/1999/xlink" version="1.1" id="Layer_1" x="0px" y="0px" style="enable-background:new 0 0 1750.2 1080;" xml:space="preserve" viewBox="382 454.1 151.3 171.1">
<style type="text/css">
	.st0{fill-rule:evenodd;clip-rule:evenodd;fill:none;}
	.st1{fill:#8661fd;}
	.st2{fill:none;}
</style>
<g>
	<path class="st1" d="M402.2,597.5c14.6,7.7,35.9,18.9,50.1,26.4c3.6,1.9,7.8,1.7,11.3-0.5c3.7-2.2,5.9-5.8,5.8-9.9v-56.9l-11.1,6.8   c-2.7,1.6-34.2,20.7-55.9,33.9C402.3,597.4,402.3,597.4,402.2,597.5z"/>
	<path class="st1" d="M440.4,557.8l-58.1-34.3c-0.1,0-0.2-0.1-0.2-0.1l-0.1,56.7c0,3.7,1.8,7.1,4.8,9.2c3.2,1.5,7,1.3,10.2-0.7   c15.3-9.3,35.5-21.6,47.1-28.6L440.4,557.8z"/>
	<polygon class="st1" points="380,504.6 380,504.6 380,504.6  "/>
	<path class="st1" d="M387.5,494.7c-3.5,2.1-5.5,5.8-5.4,9.9c-0.1,4.3,1.9,8,5.4,10.1l48.6,28.7v-12.3c0-3.9,0-40.3,0-65.3   c0-0.1,0-0.1,0-0.2C422,474.1,401.3,486.5,387.5,494.7z"/>
	<path class="st1" d="M459.2,454.1c-2.5,0-5,0.7-7.1,1.9l0,0l-0.5,0.3c-3.3,2-5.2,5.6-5.2,9.5c0,18.6,0,43.5,0,56.7l68.5-40.5   l-49.1-26.2C463.8,454.6,461.5,454.1,459.2,454.1z"/>
	<path class="st1" d="M533.3,533.2h-53.7v80.2c0,0,0,0,0,0.1l48.2-29.2c3.4-2.1,5.5-5.8,5.4-9.8l0-1.1L533.3,533.2z"/>
</g>
</svg>